<?xml version="1.0" encoding="utf-8"?>
<!-- Generated by IcoMoon.io -->
<!DOCTYPE svg PUBLIC "-//W3C//DTD SVG 1.1//EN" "http://www.w3.org/Graphics/SVG/1.1/DTD/svg11.dtd">
<svg version="1.1" xmlns="http://www.w3.org/2000/svg" xmlns:xlink="http://www.w3.org/1999/xlink" width="1024" height="1024" viewBox="0 0 1024 1024">
<g id="icomoon-ignore">
</g>
<path fill="#000" d="M992.625 500.131l31.694-31.799-31.715-31.819c-4.344-6.629-10.005-12.308-16.611-16.666l-404.405-405.745c-22.565-22.659-59.177-22.659-81.719 0-22.565 22.646-22.565 59.362 0 82.007l313.158 314.224h-744.924c-31.93 0-57.783 25.986-57.783 57.995 0 32.036 25.852 57.995 57.783 57.995h744.929l-313.161 314.227c-22.565 22.672-22.565 59.365 0 82.009 11.283 11.336 26.093 16.992 40.873 16.992 14.778 0 29.561-5.656 40.844-16.992l404.388-405.729c6.624-4.364 12.297-10.056 16.649-16.702z"></path>
</svg>
