<?xml version="1.0" encoding="utf-8"?>
<!-- Generated by IcoMoon.io -->
<!DOCTYPE svg PUBLIC "-//W3C//DTD SVG 1.1//EN" "http://www.w3.org/Graphics/SVG/1.1/DTD/svg11.dtd">
<svg version="1.1" xmlns="http://www.w3.org/2000/svg" xmlns:xlink="http://www.w3.org/1999/xlink" width="32" height="32" viewBox="0 0 32 32">
<path d="M16 0c-8.836 0-16 7.35-16 16.407 0 7.25 4.586 13.393 10.943 15.564 0.1 0.021 0.186 0.029 0.271 0.029 0.593 0 0.821-0.436 0.821-0.814 0-0.393-0.014-1.421-0.021-2.793-0.6 0.136-1.136 0.193-1.614 0.193-3.079 0-3.779-2.393-3.779-2.393-0.729-1.893-1.779-2.4-1.779-2.4-1.393-0.979-0.007-1.007 0.1-1.007 0.007 0 0.007 0 0.007 0 1.607 0.143 2.45 1.7 2.45 1.7 0.8 1.4 1.871 1.793 2.829 1.793 0.75 0 1.429-0.243 1.829-0.429 0.143-1.057 0.557-1.779 1.014-2.193-3.55-0.414-7.286-1.821-7.286-8.107 0-1.793 0.621-3.257 1.643-4.4-0.164-0.414-0.714-2.086 0.157-4.343 0 0 0.114-0.036 0.357-0.036 0.579 0 1.886 0.221 4.043 1.721 1.279-0.364 2.643-0.543 4.007-0.55 1.357 0.007 2.729 0.186 4.007 0.55 2.157-1.5 3.464-1.721 4.043-1.721 0.243 0 0.357 0.036 0.357 0.036 0.871 2.257 0.321 3.929 0.157 4.343 1.021 1.15 1.643 2.614 1.643 4.4 0 6.3-3.743 7.686-7.307 8.093 0.571 0.507 1.086 1.507 1.086 3.036 0 2.193-0.021 3.964-0.021 4.5 0 0.386 0.221 0.821 0.814 0.821 0.086 0 0.186-0.007 0.286-0.029 6.364-2.171 10.943-8.321 10.943-15.564 0-9.057-7.164-16.407-16-16.407z"></path>
</svg>
