<?xml version="1.0" encoding="utf-8"?>
<!-- Generated by IcoMoon.io -->
<!DOCTYPE svg PUBLIC "-//W3C//DTD SVG 1.1//EN" "http://www.w3.org/Graphics/SVG/1.1/DTD/svg11.dtd">
<svg version="1.1" xmlns="http://www.w3.org/2000/svg" xmlns:xlink="http://www.w3.org/1999/xlink" width="32" height="32" viewBox="0 0 32 32">
<path d="M29.712 12.635c-0.47 0-0.907 0.228-1.27 0.618-1.702-3.224-5.105-5.667-9.247-6.519l-0.769-1.661c0 0 0.082-0.034 0.313-1.575-1.135 0.517-1.486 0.951-1.486 0.951s0.074-0.754 0.794-2.159c-3.22 1.186-3.775 3.343-3.775 3.343s-0.041 0.017 0.131-1.548c-1.436 0.953-2.072 2.080-2.347 2.795-3.825 0.956-6.95 3.284-8.574 6.309-0.35-0.352-0.765-0.555-1.209-0.555-1.259 0-2.28 1.634-2.28 3.649s1.021 3.649 2.28 3.649c0.067 0 0.133-0.005 0.199-0.014 1.111 5.429 6.721 9.559 13.474 9.559 6.759 0 12.373-4.138 13.477-9.575 0.095 0.019 0.192 0.029 0.29 0.029 1.259 0 2.28-1.634 2.28-3.649s-1.021-3.649-2.28-3.649zM2.35 16.55c-0.145 0.942-0.11 1.822 0.063 2.49-0.85-0.018-1.536-1.019-1.536-2.253 0-1.245 0.698-2.255 1.559-2.255 0.167 0 0.328 0.039 0.479 0.11-0.253 0.53-0.454 1.186-0.566 1.908zM16.123 27.964c-5.934 0-10.743-2.768-10.743-6.182 0-0.645 0.172-1.268 0.491-1.852-0.471-0.781-0.74-1.68-0.74-2.637 0-3.001 2.64-5.434 5.897-5.434 1.879 0 3.552 0.81 4.632 2.071 1.080-1.261 2.753-2.071 4.632-2.071 3.257 0 5.897 2.433 5.897 5.434 0 0.649-0.124 1.272-0.35 1.849 0.659 0.801 1.027 1.696 1.027 2.641-0 3.414-4.81 6.182-10.743 6.182zM29.571 19.039c0.174-0.668 0.209-1.547 0.064-2.49-0.111-0.722-0.313-1.378-0.566-1.908 0.151-0.071 0.312-0.11 0.479-0.11 0.861 0 1.559 1.009 1.559 2.255 0 1.234-0.686 2.235-1.536 2.253z"></path>
<path d="M15.854 17.942c0-2.213-1.794-4.008-4.008-4.008s-4.008 1.794-4.008 4.008c0 2.213 1.794 4.008 4.008 4.008s4.008-1.794 4.008-4.008zM9.91 17.124c-0.508 0-0.92-0.412-0.92-0.92s0.412-0.92 0.92-0.92c0.508 0 0.92 0.412 0.92 0.92s-0.412 0.92-0.92 0.92zM21.557 24.841c0-0.218-0.177-0.395-0.395-0.395-0.165 0-0.306 0.101-0.365 0.244-1.369 0.643-2.925 1.025-4.582 1.069v-2.223c0.543-0.129 0.948-0.615 0.948-1.198 0-0.681-0.552-1.232-1.232-1.232s-1.232 0.552-1.232 1.232c0 0.593 0.419 1.088 0.978 1.206v2.219c-1.527-0.028-2.971-0.341-4.264-0.882-0.070-0.111-0.193-0.185-0.334-0.185-0.218 0-0.395 0.177-0.395 0.395 0 0.174 0.114 0.321 0.271 0.373l-0.042 0.065c1.5 0.645 3.192 1.010 4.983 1.010 2.036 0 3.942-0.471 5.585-1.289l-0.072-0.101c0.091-0.072 0.15-0.183 0.15-0.308zM20.214 13.935c-2.213 0-4.008 1.794-4.008 4.008s1.794 4.008 4.008 4.008c2.213 0 4.008-1.794 4.008-4.008s-1.794-4.008-4.008-4.008zM18.542 17.124c-0.508 0-0.92-0.412-0.92-0.92s0.412-0.92 0.92-0.92c0.508 0 0.92 0.412 0.92 0.92s-0.412 0.92-0.92 0.92z"></path>
</svg>
