<?xml version="1.0" encoding="utf-8"?>
<!-- Generated by IcoMoon.io -->
<!DOCTYPE svg PUBLIC "-//W3C//DTD SVG 1.1//EN" "http://www.w3.org/Graphics/SVG/1.1/DTD/svg11.dtd">
<svg version="1.1" xmlns="http://www.w3.org/2000/svg" xmlns:xlink="http://www.w3.org/1999/xlink" width="32" height="32" viewBox="0 0 32 32">
<path d="M16 0c-8.837 0-16 7.163-16 16s7.163 16 16 16 16-7.163 16-16-7.163-16-16-16zM25.039 20.902c-0.679 0.583-1.561-1.917-1.688-1.532-0.309 0.935-0.453 1.56-1.364 2.578-0.049 0.055 1.052 0.452 1.364 1.301 0.299 0.813 0.879 2.102-2.921 2.507-2.23 0.237-3.842-1.188-4.002-1.175-0.298 0.026-0.165 0-0.485 0-0.262 0-0.279 0.019-0.526 0-0.068-0.005-0.809 1.175-4.124 1.175-2.569 0-3.235-1.617-2.718-2.507s1.379-1.148 1.257-1.289c-0.599-0.693-1.011-1.435-1.257-2.105-0.061-0.167-0.112-0.329-0.152-0.485-0.094-0.358-0.809 2.1-1.577 1.532s-0.699-2.013-0.202-3.396c0.501-1.394 1.765-2.737 1.779-3.033 0.050-1.103-0.109-1.286 0-1.576 0.242-0.649 0.537-0.4 0.537-0.737 0-4.242 3.152-7.68 7.040-7.68s7.040 3.439 7.040 7.68c0 0.162 0.423 0 0.625 0.737 0.041 0.152 0.070 0.74 0.021 1.576-0.023 0.402 1.071 0.891 1.637 3.033s0 3.154-0.283 3.396z"></path>
</svg>
