<?xml version="1.0" encoding="utf-8"?>
<!-- Generated by IcoMoon.io -->
<!DOCTYPE svg PUBLIC "-//W3C//DTD SVG 1.1//EN" "http://www.w3.org/Graphics/SVG/1.1/DTD/svg11.dtd">
<svg version="1.1" xmlns="http://www.w3.org/2000/svg" xmlns:xlink="http://www.w3.org/1999/xlink" width="1024" height="1024" viewBox="0 0 1024 1024">
<g id="icomoon-ignore">
</g>
<path fill="#000" d="M665.599 326.401c42.419 0 76.8-34.38 76.8-76.8s-34.38-76.8-76.8-76.8-76.8 34.38-76.8 76.8c0 7.692 1.165 15.104 3.264 22.106l-251.173 190.554c-10.189-4.98-21.594-7.859-33.69-7.859-42.419 0-76.8 34.38-76.8 76.8s34.38 76.8 76.8 76.8c17.459 0 33.497-5.888 46.4-15.693l237.491 163.789c-1.446 5.875-2.291 11.981-2.291 18.304 0 42.419 34.38 76.8 76.8 76.8s76.8-34.38 76.8-76.8-34.38-76.8-76.8-76.8c-17.446 0-33.497 5.888-46.387 15.693l-237.504-163.789c1.446-5.875 2.291-11.981 2.291-18.304 0-11.456-2.573-22.272-7.065-32.025l245.375-186.137c12.327 8.423 27.226 13.363 43.289 13.363z"></path>
<path fill="#000" d="M74.624 657.459c-15.54-46.759-23.424-95.692-23.424-145.459 0-254.092 206.707-460.799 460.799-460.799 49.766 0 98.701 7.885 145.459 23.424 13.453 4.442 27.917-2.803 32.371-16.217s-2.816-27.917-16.23-32.371c-51.98-17.28-106.355-26.035-161.6-26.035-282.317 0-511.999 229.683-511.999 511.999 0 55.245 8.755 109.619 26.035 161.613 3.572 10.739 13.568 17.536 24.281 17.536 2.675 0 5.402-0.422 8.077-1.319 13.414-4.454 20.684-18.944 16.23-32.371z"></path>
<path fill="#000" d="M872.281 148.212c-10.022-9.945-26.253-9.869-36.199 0.179s-9.869 26.253 0.179 36.199c88.052 87.207 136.537 203.481 136.537 327.411 0 254.092-206.707 460.799-460.799 460.799-160.652 0-307.173-81.625-391.948-218.355-7.449-12.006-23.219-15.718-35.238-8.269s-15.718 23.232-8.269 35.252c94.17 151.884 256.959 242.573 435.455 242.573 282.317 0 511.999-229.683 511.999-511.999 0-137.689-53.875-266.892-151.718-363.788z"></path>
</svg>
