<?xml version="1.0" encoding="utf-8"?>
<!-- Generated by IcoMoon.io -->
<!DOCTYPE svg PUBLIC "-//W3C//DTD SVG 1.1//EN" "http://www.w3.org/Graphics/SVG/1.1/DTD/svg11.dtd">
<svg version="1.1" xmlns="http://www.w3.org/2000/svg" xmlns:xlink="http://www.w3.org/1999/xlink" width="32" height="32" viewBox="0 0 32 32">
<path d="M16 32c8.837 0 16-7.163 16-16s-7.163-16-16-16c-8.837 0-16 7.163-16 16s7.163 16 16 16v0zM11.297 11.902c3.075 1.553 5.675 1.464 5.675 1.464s-0.985-3.434 2.061-4.958c3.047-1.523 5.143 1.045 5.143 1.045s0.531-0.146 0.928-0.291c0.395-0.146 0.968-0.407 0.968-0.407l-0.938 1.675 1.446-0.153c0 0-0.178 0.261-0.757 0.792-0.578 0.53-0.817 0.803-0.817 0.803s0.207 4.135-1.971 7.318c-2.178 3.183-4.992 5.094-9.079 5.496-4.088 0.401-6.751-1.255-6.751-1.255s1.789-0.102 2.928-0.537c1.138-0.435 2.777-1.583 2.777-1.583s-2.329-0.718-3.166-1.523c-0.837-0.807-1.046-1.285-1.046-1.285l2.299-0.030c0 0-2.419-1.285-3.106-2.299-0.687-1.016-0.776-2.001-0.776-2.001l1.768 0.713c0 0-1.47-1.998-1.679-3.551s0.27-2.39 0.27-2.39c0 0 0.746 1.403 3.823 2.957v0z"></path>
</svg>
