<?xml version="1.0" encoding="utf-8"?>
<!-- Generated by IcoMoon.io -->
<!DOCTYPE svg PUBLIC "-//W3C//DTD SVG 1.1//EN" "http://www.w3.org/Graphics/SVG/1.1/DTD/svg11.dtd">
<svg version="1.1" xmlns="http://www.w3.org/2000/svg" xmlns:xlink="http://www.w3.org/1999/xlink" width="32" height="32" viewBox="0 0 32 32">
<path d="M16 0c-8.836 0-16 7.163-16 16s7.164 16 16 16 16-7.163 16-16-7.164-16-16-16zM14.4 24.32c-5.479 0-9.92-2.865-9.92-6.399s6.652-9.115 9.196-9.115c1.067 0 3.161 0.795 1.696 3.315-0.103 0.176 3.304-1.465 5.166-0.386s0 2.814 0 3.007 3.739 0.193 3.739 3.179c0 3.535-4.399 6.4-9.877 6.4zM22.196 11.233c-0.617-0.732-1.72-0.561-1.72-0.561-0.323 0.003-0.574-0.222-0.619-0.526-0.004 0.031-0.018 0.059-0.018 0.091v-0.178c0 0.031 0.014 0.058 0.018 0.088 0.044-0.312 0.298-0.587 0.617-0.629 0 0 1.335-0.365 2.492 0.676s0.683 2.763 0.683 2.763c-0.050 0.35-0.392 0.63-0.748 0.63h-0.063c-0.356 0-0.564-0.274-0.466-0.613 0-0.001 0.44-1.007-0.177-1.739zM26.582 13.446c-0.044 0.487-0.469 0.884-0.953 0.938 0.036 0.004 0.070 0.011 0.107 0.011h-0.218c0.037 0 0.074-0.007 0.111-0.011-0.469-0.055-0.785-0.452-0.717-0.939 0 0 0.522-2.019-0.75-3.845s-4.007-1.511-4.007-1.511c-0.486-0.001-0.894-0.358-0.945-0.835-0.004 0.034-0.010 0.066-0.010 0.101v-0.2c0 0.034 0.007 0.066 0.010 0.1 0.052-0.477 0.453-0.857 0.948-0.861 0 0 2.847-0.287 4.967 1.717s1.457 5.335 1.457 5.335z"></path>
<path d="M13.44 17.92c0 0.353 0.287 0.64 0.64 0.64s0.64-0.287 0.64-0.64c0-0.353-0.287-0.64-0.64-0.64s-0.64 0.287-0.64 0.64z"></path>
<path d="M12.603 20.020c0.219-0.184 0.363-0.505 0.363-0.87 0-0.566-0.344-1.024-0.769-1.024-0.15 0-0.29 0.057-0.409 0.157-0.216 0.181-0.36 0.502-0.36 0.868 0 0.566 0.344 1.024 0.769 1.024 0.15 0 0.29-0.057 0.409-0.157z"></path>
<path d="M13.501 14.12c-3.5 0.492-6.078 2.735-5.758 5.010s3.416 3.721 6.917 3.229c3.5-0.492 6.078-2.735 5.759-5.010s-3.417-3.721-6.917-3.229zM14.012 21.74c-2.082 0.405-4.043-0.674-4.38-2.408s1.077-3.469 3.159-3.874c2.082-0.405 4.043 0.673 4.38 2.408s-1.077 3.469-3.159 3.874z"></path>
</svg>
